<?xml version="1.0" encoding="UTF-8"?>
<svg id="Camada_1" xmlns="http://www.w3.org/2000/svg" version="1.1" viewBox="0 0 2816 1536">
  <!-- Generator: Adobe Illustrator 30.0.0, SVG Export Plug-In . SVG Version: 2.1.1 Build 123)  -->
  <defs>
    <style>
      .st0 {
        fill: #717abc;
      }

      .st1 {
        fill: #cccece;
      }
    </style>
  </defs>
  <path class="st0" d="M514,1184c2.11-5.86,3.72-32.06,2-36,109.97-61.57,218.89-125.2,327.01-189.99l.99-354.01c5.48-12.26,1.38-17.88-8.93-24.16-2.77-1.69-6.27-1.36-7.07-1.84-102.82-61.94-206.71-122.31-310.98-181.86-102.07,57.32-202.37,117.71-303.76,176.2-1.81,1.04-2.75,3.38-3.26,3.67-.87.5-4.1-.14-5.99.93-2.5,1.42-13.27,6.72-13.69,7.38-1.44,2.3.08,13.37-.33,17.69-.07.78-3.31,4.24-2.15,6.76l.46,347.92,202.7,119.3c1.85-19.17.93-38.72.99-57.99.04-11.31-.02-22.69,0-34,.21-97.53-.44-195.13.33-292.67l145.14-87.03,5.02.04,145.1,84.06c1.88,27.4.14,54.93.32,82.69.13,19.98,2.46,42.4,2.17,62-.1,6.99-3.18,14.92-2.49,22.52-46.99,27.11-93.71,54.8-140.24,82.74-6.95,4.17-17.41,7.96-23.34,11.66-.42-10.67,1.46-21.71-2-32,45.1-27.08,90.38-54.1,135.01-81.99v-128.03l-116.37-69.62-116.65,70.63v149c17.04-13.89,30.64-31.21,45.53-47.23-.62-22.29-4.29-51.99-1.64-73.88.27-2.21.01-4.39,2.09-5.91l69.33-40.56,72.85,42.5c-2.43,23.39,2.72,51.45-.04,74.2-.27,2.21-.01,4.39-2.09,5.91l-69.01,40.9c-8.77-1.67-38.99-25.58-44.95-23.03l-72.06,76.1v223l-11.35-3.65c-83.88-51.23-170.45-98.09-253.66-150.33l.03-408c116.41-70.12,234.75-136.97,351.54-206.46,5.23-2.9,10.66-1.69,15.54,1.36l345.83,202.15,4.03,5.97-.94,404.97-357.07,209.24c-3.47,1.15-3.33-1.05-3.95-1.26h0ZM500.33,795.68c13.01,2.71,26.76,17.49,37.81,21.35,2.79.98,2.87.39,5.21-.51,3.34-1.29,34.55-20.72,35.64-22.53,1.83-3.04,1.79-40.38.02-44s-36.62-24.48-40.88-23.02c-2.57.88-36,21.17-37.12,23.04-1.5,2.5-1.89,43.73-.68,45.67h0Z"/>
  <path class="st1" d="M522,918c3.46,10.29,1.58,21.33,2,32-.63.39-1.84,3.45-4.03,4.88-6.69,4.34-19.45,7.91-20.08,16.01l.08,167.7c.62,2.55,15.64,8.51,16.03,9.41,1.72,3.94.11,30.14-2,36-4.24-1.37-40.24-21.65-42.78-24.22-1.4-1.41-3.31-2.09-3.23-4.77l1.04-204.98c1.3-2.06,3.21-3.45,5.1-4.9,13.45-10.37,33.15-18.29,47.87-27.13Z"/>
  <path class="st1" d="M828,578c.79.48,4.29.15,7.07,1.84,10.32,6.27,14.41,11.9,8.93,24.16l-59.89,37.11-3.73,4.27c1.51,14.26-4.33,76.21,2.2,84.07,1.7,2.04,7.58,3.84,10.41,6.57,11.37,10.99,14.74,31.21,7.41,45.38-7.2,13.92-17.91,9.39-20.14,29.86-3.57,32.76,2.94,69.6-1.24,102.76l-143.04,86.96c-3.39,3.83-1.48,11.44-2.91,17.09-5.91,23.32-37.45,33.6-56.97,20.84-35.73-23.35-14.4-76.37,26.74-70.72,7.17.98,12.47,6.64,19.15,4.98l127.69-76.49.41-97.35c-26.01-12.71-29.35-41.53-10.87-63.12,2.37-2.77,7.08-4.27,8.94-7.06,6.06-9.16-.41-69.63,1.44-84.75l-163.56-99.6c-12.46,1.09-20.28,7.82-34.58,4.75-5.72-1.23-10.76-8.22-17.33-4.53l-189.1,119-1.05,148.58c32.25,13.72,28.87,65.04-5.85,72.52-33.1,7.14-56.04-22.93-43.93-53.92,4.34-11.11,12.01-12.35,17.82-20.18l-.33-143.69-121.68-65.32c.41-4.31-1.12-15.39.33-17.69.41-.66,11.19-5.97,13.69-7.38,1.89-1.07,5.12-.43,5.99-.93,8.92,4.3,36.17,23.73,44.47,21.64l115.52-68.65c3.22-20.6,11.28-42.44,35-44.99,51.17-5.49,60.06,62.08,18.11,74.09-15.83,4.53-22.77-1.22-37.57-3.75-32.78,21.51-67.33,40.98-101.52,59.68-2.03,2.6,27.97,16.62,30.51,18.03,3.16,1.76,5.39,8.75,13.5,7.12l192.02-120.13c2.95-2.94,1.89-11.51,3.33-16.67,7.82-27.99,44-38.79,64.62-17.35,10.38,10.79,8.94,21.1,12.03,33.97l161.51,96.66c4.14,1.43,7.13-1.06,10.56-2.57,18.15-8,37.22-26.56,55.91-35.07l-.02-.02ZM574.27,512.34c0-7.76-6.29-14.05-14.05-14.05s-14.05,6.29-14.05,14.05,6.29,14.05,14.05,14.05,14.05-6.29,14.05-14.05ZM405.42,508.43c-13.11,3.87-9.79,33.02,10.66,26.7,14.55-4.5,10.39-32.92-10.66-26.7ZM780.5,764.1c0-7.93-6.43-14.36-14.36-14.36s-14.36,6.43-14.36,14.36,6.43,14.36,14.36,14.36,14.36-6.43,14.36-14.36ZM342.97,848.31c0-7.95-6.44-14.39-14.39-14.39s-14.39,6.44-14.39,14.39,6.44,14.39,14.39,14.39,14.39-6.44,14.39-14.39ZM611.21,1005.83c0-7.94-6.43-14.37-14.37-14.37s-14.37,6.43-14.37,14.37,6.43,14.37,14.37,14.37,14.37-6.43,14.37-14.37Z"/>
  <path class="st1" d="M392,984c-.02,11.31.04,22.69,0,34-9.42-2.27-18.93-8.75-27.34-13.66-43.56-25.42-87.09-51.28-129.67-78.33l-1.02-166.98c-1.12-5.71-11.89-10.1-16.38-17.62-22.1-37.01,22.54-77.23,56.28-52.28,16.1,11.9,18.52,37.19,7.8,53.54-5.21,7.94-14.76,9.41-15.77,18.23l.42,147.78,125.68,75.32h0ZM264.08,720.46c0-7.8-6.32-14.12-14.12-14.12s-14.12,6.32-14.12,14.12,6.32,14.12,14.12,14.12,14.12-6.32,14.12-14.12Z"/>
</svg>